<?xml version="1.0" standalone="no"?>
<!DOCTYPE svg PUBLIC "-//W3C//DTD SVG 20010904//EN"
 "http://www.w3.org/TR/2001/REC-SVG-20010904/DTD/svg10.dtd">
<svg version="1.0" xmlns="http://www.w3.org/2000/svg"
 width="45.000000pt" height="45.000000pt" viewBox="0 0 45.000000 45.000000"
 preserveAspectRatio="xMidYMid meet">

<g transform="translate(0.000000,45.000000) scale(0.100000,-0.100000)"
fill="#000000" stroke="none">
<path d="M156 329 c-30 -36 -33 -50 -8 -46 34 5 61 32 55 55 -7 29 -16 28 -47
-9z"/>
<path d="M302 340 c-7 -11 -20 -20 -30 -20 -10 0 -25 -11 -32 -25 -8 -15 -19
-24 -28 -20 -7 3 -19 2 -25 -2 -23 -14 -56 -11 -73 8 -9 10 -23 19 -31 19 -19
0 -16 -24 7 -45 19 -17 19 -49 1 -80 -19 -33 -10 -40 46 -38 63 1 88 -14 78
-48 -6 -19 -5 -19 17 -7 12 7 25 16 28 19 3 3 22 14 43 24 26 12 35 21 28 28
-16 16 7 51 24 37 10 -9 15 -4 20 20 10 47 -2 93 -33 123 -27 26 -28 26 -40 7z
m-30 -112 c21 -21 21 -23 5 -26 -10 -2 -25 5 -33 15 -13 17 -15 17 -28 1 -7
-10 -19 -18 -26 -18 -8 0 -4 10 10 25 29 31 44 31 72 3z m-81 -61 c-10 -9 -11
-8 -5 6 3 10 9 15 12 12 3 -3 0 -11 -7 -18z"/>
</g>
</svg>
