<?xml version="1.0" standalone="no"?>
<!DOCTYPE svg PUBLIC "-//W3C//DTD SVG 20010904//EN"
 "http://www.w3.org/TR/2001/REC-SVG-20010904/DTD/svg10.dtd">
<svg version="1.0" xmlns="http://www.w3.org/2000/svg"
 width="500.000000pt" height="500.000000pt" viewBox="0 0 500.000000 500.000000"
 preserveAspectRatio="xMidYMid meet">

<g transform="translate(0.000000,500.000000) scale(0.100000,-0.100000)"
fill="#000000" stroke="none">
<path d="M1955 4190 c-13 -14 -15 -24 -8 -31 15 -15 63 10 63 33 0 24 -32 23
-55 -2z"/>
<path d="M2637 4180 c-122 -12 -318 -63 -434 -113 -389 -169 -689 -498 -815
-892 -18 -58 -36 -105 -39 -105 -4 0 -55 55 -114 121 -92 104 -117 126 -171
151 -138 65 -253 60 -301 -11 -45 -67 -24 -248 40 -337 12 -17 92 -109 177
-204 85 -95 157 -177 159 -182 2 -5 0 -37 -3 -72 -7 -61 -8 -62 -51 -85 -48
-26 -90 -73 -100 -114 -6 -21 1 -34 38 -74 l45 -48 -35 -103 c-20 -56 -41
-102 -47 -102 -32 -1 -146 -119 -146 -152 0 -5 18 -28 40 -52 22 -24 40 -51
40 -60 0 -9 -14 -62 -30 -118 -39 -130 -38 -149 5 -197 63 -70 96 -65 195 27
l65 61 382 1 381 0 79 -49 c104 -65 178 -100 298 -146 56 -21 113 -50 129 -65
l28 -27 -30 -64 c-16 -35 -53 -112 -81 -172 -28 -59 -51 -116 -51 -126 0 -11
12 -33 26 -50 20 -25 34 -31 63 -31 34 0 50 11 147 97 60 53 121 107 136 121
l27 25 61 -32 c34 -18 69 -30 78 -26 10 3 39 26 64 52 51 53 51 43 7 149 -18
46 -3 56 131 83 219 45 422 124 570 224 52 35 59 37 139 37 l83 0 -14 22 c-47
72 -50 60 35 145 187 188 313 420 383 708 23 93 28 139 32 291 4 183 -4 257
-43 409 -86 327 -290 621 -570 821 -89 63 -296 167 -395 198 -188 60 -420 85
-613 66z m368 -51 c147 -22 297 -70 428 -135 29 -15 54 -28 56 -30 2 -2 -25
-33 -62 -69 -47 -46 -74 -84 -97 -132 -69 -152 -67 -150 -242 -173 -155 -20
-199 -31 -250 -62 -50 -31 -83 -78 -108 -154 -21 -62 -50 -101 -105 -138 -32
-22 -55 -72 -55 -120 0 -39 0 -39 -130 -61 l-85 -14 -40 44 c-43 49 -64 54
-118 31 -34 -14 -107 -90 -107 -112 0 -7 -31 -18 -72 -27 -145 -31 -130 -33
-176 16 -22 25 -45 48 -50 51 -25 15 -152 -68 -152 -100 0 -22 -35 -34 -98
-34 l-59 0 -46 58 c-26 31 -45 64 -43 72 3 8 12 41 21 73 l16 58 30 -25 c25
-21 41 -26 87 -26 31 0 79 7 107 15 37 12 74 14 150 9 82 -5 107 -4 132 9 38
20 89 80 98 116 15 62 54 101 138 140 45 21 96 51 114 68 61 57 68 169 16 265
-31 56 -33 88 -18 235 l8 82 46 14 c219 70 442 89 666 56z m-2161 -799 c-12
-5 -29 -19 -38 -32 -9 -12 -16 -18 -16 -12 0 17 40 54 58 53 13 0 12 -2 -4 -9z
m94 3 c-10 -2 -26 -2 -35 0 -10 3 -2 5 17 5 19 0 27 -2 18 -5z m124 -41 c28
-16 92 -77 155 -147 59 -67 139 -156 177 -198 l69 -77 93 0 c92 0 94 1 108 28
15 28 63 82 72 82 4 0 -8 -16 -26 -36 -17 -20 -35 -47 -40 -60 -9 -23 -13 -24
-109 -24 l-100 0 -176 198 c-146 162 -187 203 -237 230 -33 17 -54 32 -46 32
7 0 34 -13 60 -28z m-275 -99 c-2 -16 -4 -3 -4 27 0 30 2 43 4 28 2 -16 2 -40
0 -55z m118 -239 c39 -43 121 -134 183 -203 76 -84 112 -132 112 -148 0 -12
-5 -23 -11 -23 -6 0 -8 8 -5 18 5 13 -13 42 -61 98 -37 43 -70 81 -73 84 -3 3
-44 48 -91 100 -46 52 -94 106 -107 120 -23 26 -62 118 -62 148 0 9 11 -13 23
-50 18 -52 38 -83 92 -144z m1392 85 c27 -29 52 -48 59 -45 8 3 14 1 14 -4 0
-24 -35 -6 -78 40 l-47 50 -34 -18 c-22 -11 -44 -35 -61 -66 -27 -51 -47 -65
-90 -64 -16 0 -10 4 16 9 35 8 44 16 59 49 23 52 68 91 113 99 2 1 24 -22 49
-50z m345 -26 c36 -34 37 -72 2 -102 -35 -30 -374 -342 -512 -470 -118 -109
-153 -138 -151 -124 0 4 26 30 57 57 31 27 102 91 157 142 55 50 181 165 280
256 116 105 181 172 183 187 4 25 -21 59 -53 72 -12 4 -14 8 -6 8 8 1 28 -11
43 -26z m-63 13 c-6 -6 -191 -37 -196 -33 -5 6 134 34 171 36 16 0 27 -1 25
-3z m-678 -123 c24 5 30 4 19 -3 -30 -20 -57 -10 -101 38 -25 27 -51 47 -59
44 -13 -3 -13 -2 0 7 12 9 24 1 61 -41 42 -48 48 -51 80 -45z m114 17 c-11 -5
-31 -8 -45 -8 -23 0 -22 1 5 8 42 11 65 11 40 0z m608 -123 c12 -31 143 -106
222 -128 188 -51 224 -77 270 -201 29 -77 74 -168 101 -205 l16 -23 -205 0
-205 0 -7 43 c-15 89 -92 200 -166 238 -48 24 -121 24 -174 0 -89 -40 -191
-162 -210 -248 l-7 -33 -88 0 c-88 0 -89 0 -111 31 -18 26 -19 33 -8 43 8 7
115 105 239 218 124 112 243 221 265 241 43 39 60 45 68 24z m-1437 -315 c-12
-11 -15 5 -8 48 l7 45 3 -44 c2 -23 1 -46 -2 -49z m-6 -30 c0 -12 -17 -26 -52
-43 -29 -13 -61 -36 -72 -51 l-19 -27 41 -45 c23 -25 42 -49 42 -53 -1 -9 -90
89 -90 99 0 18 59 72 97 89 24 10 43 25 43 34 0 8 2 15 5 15 3 0 5 -8 5 -18z
m840 -205 c0 -6 -9 -2 -20 8 -11 10 -20 23 -20 28 0 6 9 2 20 -8 11 -10 20
-23 20 -28z m-743 -159 c132 -202 136 -208 130 -208 -2 0 -22 26 -43 58 -22
31 -42 59 -46 60 -5 2 -8 8 -8 14 0 6 -16 28 -35 49 -19 22 -35 46 -35 54 0 8
-5 15 -10 15 -6 0 -16 12 -22 28 -7 15 -20 39 -31 55 -10 15 -14 27 -10 27 5
0 54 -69 110 -152z m-192 5 c-20 -59 -41 -112 -47 -118 -8 -7 -9 -4 -3 10 4
11 23 66 42 123 19 57 37 101 40 98 3 -2 -12 -53 -32 -113z m2822 26 c34 -33
78 -66 97 -74 20 -9 36 -19 36 -24 0 -4 -18 -36 -41 -71 -86 -134 -254 -318
-262 -289 -3 8 -10 32 -16 54 -8 29 -23 49 -57 75 -90 68 -91 64 27 243 121
184 116 182 216 86z m-2213 -71 c10 -62 22 -138 26 -168 5 -30 16 -96 25 -146
23 -138 22 -144 -19 -144 l-35 0 -6 58 c-3 31 -7 64 -8 72 -2 10 -16 16 -49
18 -51 3 -49 7 -64 -100 -6 -47 -7 -48 -40 -48 -31 0 -34 3 -34 29 0 15 5 53
10 82 6 30 20 124 30 209 21 163 29 217 35 238 3 7 24 12 58 12 l53 0 18 -112z
m196 -90 c0 -112 -3 -240 -6 -284 l-7 -82 -33 0 -32 0 3 282 c1 154 3 282 4
284 1 1 17 2 36 2 l35 0 0 -202z m268 179 c58 -62 56 -222 -3 -277 -14 -13
-25 -28 -25 -35 0 -6 16 -49 36 -95 20 -47 40 -98 45 -113 8 -28 8 -28 -34
-25 -38 3 -43 6 -54 38 -43 128 -69 192 -78 189 -6 -3 -9 -49 -7 -117 l2 -113
-37 3 -38 3 -3 283 -3 282 89 0 c80 0 91 -2 110 -23z m446 -3 c24 -24 26 -34
26 -104 0 -64 -4 -82 -21 -104 l-21 -27 20 -22 c38 -40 50 -159 23 -224 -19
-46 -58 -63 -145 -63 l-76 0 0 285 0 285 84 0 c77 0 85 -2 110 -26z m303 -1
c-3 -27 -6 -28 -65 -31 l-62 -3 0 -92 0 -92 50 3 50 4 0 -36 0 -36 -50 0 -50
0 0 -79 c0 -110 1 -111 71 -111 l59 0 0 -35 0 -35 -100 0 -100 0 0 285 0 285
100 0 101 0 -4 -27z m240 -58 c20 -130 63 -449 63 -468 0 -13 -9 -17 -34 -17
-37 0 -34 -6 -51 108 -7 42 -7 42 -50 42 l-44 0 -12 -75 -12 -75 -33 0 -34 0
5 43 c4 39 13 97 35 237 5 30 16 108 26 173 l18 118 55 -3 56 -3 12 -80z m305
74 c30 -16 48 -70 48 -143 0 -75 -11 -110 -46 -147 l-26 -27 46 -116 c25 -63
46 -118 46 -121 0 -3 -17 -5 -39 -5 -33 0 -40 4 -49 28 -6 15 -22 59 -37 97
-56 150 -59 149 -56 -10 l2 -115 -34 0 -34 0 -5 58 c-7 90 -10 491 -3 502 8
13 161 13 187 -1z m-2462 -192 c0 -2 -19 -18 -42 -36 l-43 -33 37 36 c34 33
48 42 48 33z m-82 -86 c-2 -5 14 -30 36 -56 37 -45 38 -48 28 -88 l-11 -42 5
42 c5 39 2 47 -35 89 -22 26 -38 50 -35 55 7 12 15 12 12 0z m449 -82 c-36
-56 -83 -110 -152 -173 -122 -111 -210 -186 -219 -186 -8 0 13 20 109 105 83
73 122 108 166 147 15 13 43 48 64 78 66 96 76 110 80 110 2 0 -19 -37 -48
-81z m-422 -194 c-13 -44 -24 -74 -24 -66 -1 18 39 154 44 149 2 -2 -7 -39
-20 -83z m1305 -151 c68 -69 72 -76 45 -69 -42 9 -226 102 -250 126 -19 19
-19 19 56 19 l75 0 74 -76z m409 26 c23 -27 50 -50 59 -50 10 0 42 9 71 20 30
11 56 18 59 16 6 -7 -107 -46 -132 -46 -17 0 -35 15 -62 50 l-38 50 -175 0
-176 0 130 -130 c71 -71 127 -132 124 -135 -7 -7 -259 251 -259 265 0 6 67 10
178 10 l179 0 42 -50z m469 29 c2 -10 -49 -64 -135 -144 -76 -70 -139 -132
-141 -139 -1 -7 9 -38 23 -70 l26 -59 -32 -33 c-18 -19 -39 -34 -47 -34 -8 0
4 13 26 30 l42 30 -25 56 c-14 31 -25 65 -25 76 0 21 -2 18 164 167 64 57 116
109 116 117 0 24 -99 17 -174 -11 -37 -14 -72 -25 -79 -24 -6 0 22 13 63 29
88 34 192 38 198 9z m-2161 -58 c10 -6 13 -11 6 -11 -14 0 -63 57 -63 73 0 7
9 -2 19 -20 11 -17 28 -36 38 -42z m1471 -389 c-45 -95 -83 -170 -85 -169 -3
4 30 80 108 246 27 57 52 102 54 99 3 -3 -32 -82 -77 -176z m323 12 c23 -14
38 -28 35 -31 -3 -4 -14 0 -23 8 -26 20 -61 39 -74 39 -10 0 -97 -73 -252
-212 -23 -21 -49 -38 -57 -38 -18 0 -40 19 -40 34 0 5 6 2 13 -8 7 -10 20 -17
29 -15 16 4 82 60 221 187 38 34 77 62 88 62 11 0 38 -12 60 -26z"/>
<path d="M1618 2050 c-8 -35 -28 -191 -28 -218 0 -18 6 -22 35 -22 41 0 40 -7
20 131 -20 135 -21 139 -27 109z"/>
<path d="M2032 1998 c3 -93 3 -93 30 -96 17 -2 34 4 49 19 19 19 21 29 16 85
-3 35 -9 69 -12 74 -3 6 -24 10 -46 10 l-40 0 3 -92z"/>
<path d="M2480 2015 l0 -85 28 0 c42 0 52 17 52 87 0 66 -12 83 -59 83 -20 0
-21 -6 -21 -85z"/>
<path d="M2480 1760 l0 -100 34 0 c18 0 39 7 46 15 16 19 14 153 -2 172 -6 7
-26 13 -44 13 l-34 0 0 -100z"/>
<path d="M3078 2055 c-3 -5 -11 -53 -17 -105 -7 -52 -14 -105 -18 -117 -5 -21
-2 -23 34 -23 l40 0 -9 57 c-5 32 -12 89 -16 128 -4 38 -10 66 -14 60z"/>
<path d="M3330 2011 c0 -44 3 -86 6 -95 7 -19 33 -20 69 -4 23 10 25 17 25 69
0 89 -11 109 -60 109 l-40 0 0 -79z"/>
<path d="M1789 4088 c-119 -83 -322 -294 -411 -428 -83 -124 -164 -282 -153
-299 15 -25 33 -6 74 77 77 157 185 306 316 438 66 66 157 146 203 178 79 55
102 86 64 86 -10 0 -52 -23 -93 -52z"/>
<path d="M4116 1719 c-199 -262 -460 -455 -761 -564 -61 -22 -91 -38 -93 -50
-3 -15 1 -17 30 -11 127 24 372 150 548 283 122 92 370 371 370 417 0 34 -28
13 -94 -75z"/>
<path d="M3135 1093 c-53 -13 -39 -50 14 -38 22 5 31 12 31 26 0 19 -7 21 -45
12z"/>
</g>
</svg>
